<svg width="100%" height="100%" id="svg" viewBox="0 0 1440 400" xmlns="http://www.w3.org/2000/svg" class="transition duration-300 ease-in-out delay-150"><defs><linearGradient id="gradient" x1="0%" y1="50%" x2="100%" y2="50%"><stop offset="5%" stop-color="#002bdc88"></stop><stop offset="95%" stop-color="#32ded488"></stop></linearGradient></defs><path d="M 0,400 C 0,400 0,133 0,133 C 126.43062200956936,115.1244019138756 252.86124401913872,97.24880382775119 336,91 C 419.1387559808613,84.75119617224881 458.98564593301444,90.12918660287082 547,106 C 635.0143540669856,121.87081339712918 771.1961722488037,148.23444976076556 887,155 C 1002.8038277511963,161.76555023923444 1098.2296650717706,148.93301435406698 1187,142 C 1275.7703349282294,135.06698564593302 1357.8851674641146,134.0334928229665 1440,133 C 1440,133 1440,400 1440,400 Z" stroke="none" stroke-width="0" fill="url(#gradient)" class="transition-all duration-300 ease-in-out delay-150 path-0"></path><defs><linearGradient id="gradient" x1="0%" y1="50%" x2="100%" y2="50%"><stop offset="5%" stop-color="#002bdcff"></stop><stop offset="95%" stop-color="#32ded4ff"></stop></linearGradient></defs><path d="M 0,400 C 0,400 0,266 0,266 C 124.61244019138758,283.42583732057415 249.22488038277515,300.85167464114835 335,292 C 420.77511961722485,283.14832535885165 467.7129186602871,248.01913875598086 545,239 C 622.2870813397129,229.98086124401914 729.9234449760766,247.0717703349282 849,264 C 968.0765550239234,280.9282296650718 1098.5933014354066,297.69377990430627 1199,298 C 1299.4066985645934,298.30622009569373 1369.7033492822966,282.1531100478469 1440,266 C 1440,266 1440,400 1440,400 Z" stroke="none" stroke-width="0" fill="url(#gradient)" class="transition-all duration-300 ease-in-out delay-150 path-1"></path></svg>
